%TF.GenerationSoftware,KiCad,Pcbnew,7.0.9*%
%TF.CreationDate,2024-01-15T08:13:50+05:30*%
%TF.ProjectId,controller_full6,636f6e74-726f-46c6-9c65-725f66756c6c,rev?*%
%TF.SameCoordinates,Original*%
%TF.FileFunction,Soldermask,Top*%
%TF.FilePolarity,Negative*%
%FSLAX46Y46*%
G04 Gerber Fmt 4.6, Leading zero omitted, Abs format (unit mm)*
G04 Created by KiCad (PCBNEW 7.0.9) date 2024-01-15 08:13:50*
%MOMM*%
%LPD*%
G01*
G04 APERTURE LIST*
G04 Aperture macros list*
%AMRoundRect*
0 Rectangle with rounded corners*
0 $1 Rounding radius*
0 $2 $3 $4 $5 $6 $7 $8 $9 X,Y pos of 4 corners*
0 Add a 4 corners polygon primitive as box body*
4,1,4,$2,$3,$4,$5,$6,$7,$8,$9,$2,$3,0*
0 Add four circle primitives for the rounded corners*
1,1,$1+$1,$2,$3*
1,1,$1+$1,$4,$5*
1,1,$1+$1,$6,$7*
1,1,$1+$1,$8,$9*
0 Add four rect primitives between the rounded corners*
20,1,$1+$1,$2,$3,$4,$5,0*
20,1,$1+$1,$4,$5,$6,$7,0*
20,1,$1+$1,$6,$7,$8,$9,0*
20,1,$1+$1,$8,$9,$2,$3,0*%
%AMRotRect*
0 Rectangle, with rotation*
0 The origin of the aperture is its center*
0 $1 length*
0 $2 width*
0 $3 Rotation angle, in degrees counterclockwise*
0 Add horizontal line*
21,1,$1,$2,0,0,$3*%
G04 Aperture macros list end*
%ADD10R,1.700000X1.700000*%
%ADD11O,1.700000X1.700000*%
%ADD12RoundRect,0.237500X0.237500X-0.250000X0.237500X0.250000X-0.237500X0.250000X-0.237500X-0.250000X0*%
%ADD13C,1.500000*%
%ADD14RoundRect,0.237500X-0.008839X-0.344715X0.344715X0.008839X0.008839X0.344715X-0.344715X-0.008839X0*%
%ADD15R,2.000000X2.000000*%
%ADD16C,2.000000*%
%ADD17R,1.350000X1.350000*%
%ADD18O,1.350000X1.350000*%
%ADD19C,1.600000*%
%ADD20RoundRect,0.250000X-0.337500X-0.475000X0.337500X-0.475000X0.337500X0.475000X-0.337500X0.475000X0*%
%ADD21RoundRect,0.200747X-0.204547X0.200746X-0.204547X-0.200746X0.204547X-0.200746X0.204547X0.200746X0*%
%ADD22RoundRect,0.196500X-0.196499X0.205000X-0.196499X-0.205000X0.196499X-0.205000X0.196499X0.205000X0*%
%ADD23RoundRect,0.237500X-0.250000X-0.237500X0.250000X-0.237500X0.250000X0.237500X-0.250000X0.237500X0*%
%ADD24RoundRect,0.250000X-0.475000X0.337500X-0.475000X-0.337500X0.475000X-0.337500X0.475000X0.337500X0*%
%ADD25RoundRect,0.237500X0.250000X0.237500X-0.250000X0.237500X-0.250000X-0.237500X0.250000X-0.237500X0*%
%ADD26R,1.600000X1.600000*%
%ADD27R,2.070000X2.070000*%
%ADD28C,2.070000*%
%ADD29RoundRect,0.250000X0.475000X-0.337500X0.475000X0.337500X-0.475000X0.337500X-0.475000X-0.337500X0*%
%ADD30R,1.560000X1.560000*%
%ADD31C,1.560000*%
%ADD32RoundRect,0.237500X-0.237500X0.287500X-0.237500X-0.287500X0.237500X-0.287500X0.237500X0.287500X0*%
%ADD33RoundRect,0.196500X0.196499X-0.205000X0.196499X0.205000X-0.196499X0.205000X-0.196499X-0.205000X0*%
%ADD34RoundRect,0.200747X0.204547X-0.200746X0.204547X0.200746X-0.204547X0.200746X-0.204547X-0.200746X0*%
%ADD35C,2.600000*%
%ADD36RoundRect,0.237500X-0.237500X0.250000X-0.237500X-0.250000X0.237500X-0.250000X0.237500X0.250000X0*%
%ADD37R,2.250000X3.200000*%
%ADD38O,1.600000X1.600000*%
%ADD39RoundRect,0.140375X-0.200625X0.140375X-0.200625X-0.140375X0.200625X-0.140375X0.200625X0.140375X0*%
%ADD40RoundRect,0.138014X-0.202090X0.138013X-0.202090X-0.138013X0.202090X-0.138013X0.202090X0.138013X0*%
%ADD41RoundRect,0.250000X-2.050000X-0.300000X2.050000X-0.300000X2.050000X0.300000X-2.050000X0.300000X0*%
%ADD42RoundRect,0.250002X-4.449998X-5.149998X4.449998X-5.149998X4.449998X5.149998X-4.449998X5.149998X0*%
%ADD43RoundRect,0.237500X-0.237500X0.300000X-0.237500X-0.300000X0.237500X-0.300000X0.237500X0.300000X0*%
%ADD44RoundRect,0.237500X0.237500X-0.300000X0.237500X0.300000X-0.237500X0.300000X-0.237500X-0.300000X0*%
%ADD45RoundRect,0.250000X0.337500X0.475000X-0.337500X0.475000X-0.337500X-0.475000X0.337500X-0.475000X0*%
%ADD46RoundRect,0.335000X0.571400X-0.335000X0.571400X0.335000X-0.571400X0.335000X-0.571400X-0.335000X0*%
%ADD47RoundRect,0.340000X0.582497X-0.339999X0.582497X0.339999X-0.582497X0.339999X-0.582497X-0.339999X0*%
%ADD48RoundRect,0.339998X0.567496X-0.339998X0.567496X0.339998X-0.567496X0.339998X-0.567496X-0.339998X0*%
%ADD49RoundRect,0.267500X0.267500X-1.717500X0.267500X1.717500X-0.267500X1.717500X-0.267500X-1.717500X0*%
%ADD50RoundRect,0.075000X0.662500X0.075000X-0.662500X0.075000X-0.662500X-0.075000X0.662500X-0.075000X0*%
%ADD51RoundRect,0.075000X0.075000X0.662500X-0.075000X0.662500X-0.075000X-0.662500X0.075000X-0.662500X0*%
%ADD52RotRect,2.000000X2.000000X135.000000*%
G04 APERTURE END LIST*
D10*
%TO.C,J2*%
X239500000Y-101400000D03*
D11*
X239500000Y-103940000D03*
X239500000Y-106480000D03*
%TD*%
D12*
%TO.C,R30*%
X219020000Y-77692500D03*
X219020000Y-75867500D03*
%TD*%
D13*
%TO.C,Y1*%
X234280000Y-131680000D03*
X234280000Y-126780000D03*
%TD*%
D14*
%TO.C,R32*%
X192684765Y-76345235D03*
X193975235Y-75054765D03*
%TD*%
D15*
%TO.C,C53*%
X156530000Y-168380000D03*
D16*
X160030000Y-168380000D03*
%TD*%
D17*
%TO.C,J3*%
X237150000Y-149860000D03*
D18*
X239150000Y-149860000D03*
X237150000Y-151860000D03*
X239150000Y-151860000D03*
X237150000Y-153860000D03*
X239150000Y-153860000D03*
X237150000Y-155860000D03*
X239150000Y-155860000D03*
%TD*%
D19*
%TO.C,C47*%
X156720000Y-127050000D03*
X161720000Y-127050000D03*
%TD*%
D20*
%TO.C,C42*%
X204212500Y-75620000D03*
X206287500Y-75620000D03*
%TD*%
D21*
%TO.C,D5*%
X168140000Y-134170000D03*
D22*
X168150000Y-137400000D03*
%TD*%
D23*
%TO.C,R28*%
X191817500Y-70820000D03*
X193642500Y-70820000D03*
%TD*%
D24*
%TO.C,C5*%
X190980000Y-163370000D03*
X190980000Y-165445000D03*
%TD*%
D25*
%TO.C,R10*%
X148212500Y-155475000D03*
X146387500Y-155475000D03*
%TD*%
D26*
%TO.C,C9*%
X173272556Y-167807444D03*
D19*
X173272556Y-165307444D03*
%TD*%
%TO.C,C50*%
X156900000Y-82070000D03*
X161900000Y-82070000D03*
%TD*%
D12*
%TO.C,R26*%
X224260000Y-153322500D03*
X224260000Y-151497500D03*
%TD*%
%TO.C,R5*%
X222640000Y-149132500D03*
X222640000Y-147307500D03*
%TD*%
D27*
%TO.C,Q6*%
X141940000Y-89340000D03*
D28*
X141940000Y-86800000D03*
X141940000Y-84260000D03*
%TD*%
D26*
%TO.C,C25*%
X184710000Y-77180000D03*
D19*
X182210000Y-77180000D03*
%TD*%
D20*
%TO.C,C31*%
X230102500Y-120950000D03*
X232177500Y-120950000D03*
%TD*%
D29*
%TO.C,C58*%
X191890000Y-101857500D03*
X191890000Y-99782500D03*
%TD*%
D27*
%TO.C,Q2*%
X142330000Y-157600000D03*
D28*
X142330000Y-155060000D03*
X142330000Y-152520000D03*
%TD*%
D24*
%TO.C,C3*%
X217740000Y-141942500D03*
X217740000Y-144017500D03*
%TD*%
%TO.C,C22*%
X190827444Y-90067556D03*
X190827444Y-92142556D03*
%TD*%
D30*
%TO.C,RV1*%
X216970000Y-71990000D03*
D31*
X221970000Y-69490000D03*
X216970000Y-66990000D03*
%TD*%
D32*
%TO.C,D11*%
X227890000Y-155737500D03*
X227890000Y-157487500D03*
%TD*%
D20*
%TO.C,C12*%
X184712500Y-141175000D03*
X186787500Y-141175000D03*
%TD*%
D19*
%TO.C,C17*%
X173250000Y-131120000D03*
D26*
X173250000Y-133620000D03*
%TD*%
%TO.C,C7*%
X197012556Y-168047444D03*
D19*
X197012556Y-170547444D03*
%TD*%
D24*
%TO.C,C21*%
X190820000Y-95092500D03*
X190820000Y-97167500D03*
%TD*%
D26*
%TO.C,C18*%
X184605113Y-111170000D03*
D19*
X182105113Y-111170000D03*
%TD*%
D12*
%TO.C,R27*%
X220920000Y-153332500D03*
X220920000Y-151507500D03*
%TD*%
D23*
%TO.C,R12*%
X193420000Y-131200224D03*
X195245000Y-131200224D03*
%TD*%
D10*
%TO.C,J4*%
X239500000Y-143685000D03*
D11*
X236960000Y-143685000D03*
%TD*%
D33*
%TO.C,D1*%
X168000000Y-155680000D03*
D34*
X168010000Y-158910000D03*
%TD*%
D23*
%TO.C,R13*%
X193420000Y-126120224D03*
X195245000Y-126120224D03*
%TD*%
D35*
%TO.C,L2*%
X212860000Y-71580000D03*
X209740000Y-71590000D03*
%TD*%
D36*
%TO.C,R31*%
X231800000Y-75777500D03*
X231800000Y-77602500D03*
%TD*%
D24*
%TO.C,C28*%
X188600000Y-76387500D03*
X188600000Y-78462500D03*
%TD*%
D27*
%TO.C,Q5*%
X141950000Y-102036026D03*
D28*
X141950000Y-99496026D03*
X141950000Y-96956026D03*
%TD*%
D12*
%TO.C,R6*%
X219290000Y-149142500D03*
X219290000Y-147317500D03*
%TD*%
D26*
%TO.C,C10*%
X184660000Y-145350000D03*
D19*
X182160000Y-145350000D03*
%TD*%
D15*
%TO.C,C55*%
X156570000Y-75120000D03*
D16*
X160070000Y-75120000D03*
%TD*%
D37*
%TO.C,D10*%
X211100000Y-63940000D03*
X204200000Y-63940000D03*
%TD*%
D35*
%TO.C,L1*%
X221030000Y-104710000D03*
X224320000Y-104760000D03*
%TD*%
D26*
%TO.C,C40*%
X208100000Y-55180000D03*
D19*
X208100000Y-57680000D03*
%TD*%
D28*
%TO.C,Q4*%
X142110000Y-118210000D03*
X142110000Y-120750000D03*
D27*
X142110000Y-123290000D03*
%TD*%
D20*
%TO.C,C4*%
X222392500Y-120940000D03*
X224467500Y-120940000D03*
%TD*%
D26*
%TO.C,U1*%
X180352556Y-155307444D03*
D38*
X180352556Y-157847444D03*
X180352556Y-160387444D03*
X180352556Y-162927444D03*
X180352556Y-165467444D03*
X180352556Y-168007444D03*
X180352556Y-170547444D03*
X187972556Y-170547444D03*
X187972556Y-168007444D03*
X187972556Y-165467444D03*
X187972556Y-162927444D03*
X187972556Y-160387444D03*
X187972556Y-157847444D03*
X187972556Y-155307444D03*
%TD*%
D10*
%TO.C,J5*%
X239490000Y-119760000D03*
D11*
X239490000Y-117220000D03*
X239490000Y-114680000D03*
X239490000Y-112140000D03*
%TD*%
D12*
%TO.C,R4*%
X225890000Y-149172500D03*
X225890000Y-147347500D03*
%TD*%
D15*
%TO.C,C51*%
X156610000Y-100170000D03*
D16*
X160110000Y-100170000D03*
%TD*%
D26*
%TO.C,C16*%
X184584888Y-116240000D03*
D19*
X187084888Y-116240000D03*
%TD*%
D15*
%TO.C,C52*%
X156550000Y-134520000D03*
D16*
X160050000Y-134520000D03*
%TD*%
D23*
%TO.C,R16*%
X193170000Y-97150000D03*
X194995000Y-97150000D03*
%TD*%
%TO.C,R8*%
X193542556Y-165447444D03*
X195367556Y-165447444D03*
%TD*%
D32*
%TO.C,D13*%
X224230000Y-155767500D03*
X224230000Y-157517500D03*
%TD*%
D24*
%TO.C,C1*%
X224420000Y-141972500D03*
X224420000Y-144047500D03*
%TD*%
D26*
%TO.C,U3*%
X180300000Y-87066250D03*
D38*
X180300000Y-89606250D03*
X180300000Y-92146250D03*
X180300000Y-94686250D03*
X180300000Y-97226250D03*
X180300000Y-99766250D03*
X180300000Y-102306250D03*
X187920000Y-102306250D03*
X187920000Y-99766250D03*
X187920000Y-97226250D03*
X187920000Y-94686250D03*
X187920000Y-92146250D03*
X187920000Y-89606250D03*
X187920000Y-87066250D03*
%TD*%
D23*
%TO.C,R20*%
X223147500Y-136670000D03*
X224972500Y-136670000D03*
%TD*%
D25*
%TO.C,R18*%
X147987500Y-87300000D03*
X146162500Y-87300000D03*
%TD*%
D29*
%TO.C,C11*%
X191832556Y-170214944D03*
X191832556Y-168139944D03*
%TD*%
D23*
%TO.C,R9*%
X193612556Y-160297444D03*
X195437556Y-160297444D03*
%TD*%
D12*
%TO.C,R7*%
X224390000Y-117105000D03*
X224390000Y-115280000D03*
%TD*%
D22*
%TO.C,D8*%
X167460000Y-103420000D03*
D21*
X167450000Y-100190000D03*
%TD*%
D24*
%TO.C,C2*%
X221110000Y-141972500D03*
X221110000Y-144047500D03*
%TD*%
D22*
%TO.C,D2*%
X167950000Y-171980000D03*
D21*
X167940000Y-168750000D03*
%TD*%
D39*
%TO.C,Z1*%
X233370000Y-102280000D03*
D40*
X233370000Y-103926778D03*
%TD*%
D26*
%TO.C,C41*%
X204192380Y-71030000D03*
D19*
X201692380Y-71030000D03*
%TD*%
D12*
%TO.C,R25*%
X227990000Y-153252500D03*
X227990000Y-151427500D03*
%TD*%
D26*
%TO.C,C45*%
X219840000Y-97090000D03*
D19*
X217340000Y-97090000D03*
%TD*%
D10*
%TO.C,J1*%
X218510000Y-170340000D03*
D11*
X221050000Y-170340000D03*
X223590000Y-170340000D03*
X226130000Y-170340000D03*
X228670000Y-170340000D03*
%TD*%
D20*
%TO.C,C34*%
X213332500Y-135680000D03*
X215407500Y-135680000D03*
%TD*%
D38*
%TO.C,U2*%
X187770000Y-120905000D03*
X187770000Y-123445000D03*
X187770000Y-125985000D03*
X187770000Y-128525000D03*
X187770000Y-131065000D03*
X187770000Y-133605000D03*
X187770000Y-136145000D03*
X180150000Y-136145000D03*
X180150000Y-133605000D03*
X180150000Y-131065000D03*
X180150000Y-128525000D03*
X180150000Y-125985000D03*
X180150000Y-123445000D03*
D26*
X180150000Y-120905000D03*
%TD*%
%TO.C,C8*%
X184684888Y-150410000D03*
D19*
X187184888Y-150410000D03*
%TD*%
D24*
%TO.C,C13*%
X190927444Y-129105280D03*
X190927444Y-131180280D03*
%TD*%
D29*
%TO.C,C19*%
X192310000Y-136067500D03*
X192310000Y-133992500D03*
%TD*%
D30*
%TO.C,RV2*%
X227290000Y-80107500D03*
D31*
X222290000Y-82607500D03*
X227290000Y-85107500D03*
%TD*%
D36*
%TO.C,R29*%
X204180000Y-77727500D03*
X204180000Y-79552500D03*
%TD*%
D20*
%TO.C,C20*%
X184562500Y-106900000D03*
X186637500Y-106900000D03*
%TD*%
D29*
%TO.C,C6*%
X190980000Y-160317500D03*
X190980000Y-158242500D03*
%TD*%
D24*
%TO.C,C32*%
X227200000Y-133962500D03*
X227200000Y-136037500D03*
%TD*%
D27*
%TO.C,Q1*%
X142330000Y-170300000D03*
D28*
X142330000Y-167760000D03*
X142330000Y-165220000D03*
%TD*%
D29*
%TO.C,C35*%
X229790000Y-134857500D03*
X229790000Y-132782500D03*
%TD*%
D20*
%TO.C,C36*%
X230132500Y-115450000D03*
X232207500Y-115450000D03*
%TD*%
D41*
%TO.C,U5*%
X217315000Y-56270000D03*
X217315000Y-57970000D03*
X217315000Y-59670000D03*
D42*
X226465000Y-59670000D03*
D41*
X217315000Y-61370000D03*
X217315000Y-63070000D03*
%TD*%
D43*
%TO.C,C29*%
X234990000Y-136080000D03*
X234990000Y-137805000D03*
%TD*%
D26*
%TO.C,C27*%
X184654888Y-82250000D03*
D19*
X187154888Y-82250000D03*
%TD*%
D25*
%TO.C,R15*%
X147987500Y-121400000D03*
X146162500Y-121400000D03*
%TD*%
D24*
%TO.C,C37*%
X230370000Y-102172500D03*
X230370000Y-104247500D03*
%TD*%
D32*
%TO.C,D12*%
X220850000Y-155775000D03*
X220850000Y-157525000D03*
%TD*%
D44*
%TO.C,C30*%
X234960000Y-122392500D03*
X234960000Y-120667500D03*
%TD*%
D28*
%TO.C,Q3*%
X142160000Y-130900000D03*
X142160000Y-133440000D03*
D27*
X142160000Y-135980000D03*
%TD*%
D33*
%TO.C,D4*%
X167960000Y-121412000D03*
D34*
X167970000Y-124642000D03*
%TD*%
D19*
%TO.C,C46*%
X156810000Y-92720000D03*
X161810000Y-92720000D03*
%TD*%
D45*
%TO.C,C33*%
X219907500Y-120930000D03*
X217832500Y-120930000D03*
%TD*%
D24*
%TO.C,C14*%
X190907444Y-124035280D03*
X190907444Y-126110280D03*
%TD*%
D46*
%TO.C,U6*%
X222038600Y-93845000D03*
D47*
X222022503Y-90704999D03*
D48*
X222027506Y-87855004D03*
D49*
X227980000Y-90630000D03*
%TD*%
D50*
%TO.C,U4*%
X226382500Y-131450000D03*
X226382500Y-130950000D03*
X226382500Y-130450000D03*
X226382500Y-129950000D03*
X226382500Y-129450000D03*
X226382500Y-128950000D03*
X226382500Y-128450000D03*
X226382500Y-127950000D03*
X226382500Y-127450000D03*
X226382500Y-126950000D03*
X226382500Y-126450000D03*
X226382500Y-125950000D03*
D51*
X224970000Y-124537500D03*
X224470000Y-124537500D03*
X223970000Y-124537500D03*
X223470000Y-124537500D03*
X222970000Y-124537500D03*
X222470000Y-124537500D03*
X221970000Y-124537500D03*
X221470000Y-124537500D03*
X220970000Y-124537500D03*
X220470000Y-124537500D03*
X219970000Y-124537500D03*
X219470000Y-124537500D03*
D50*
X218057500Y-125950000D03*
X218057500Y-126450000D03*
X218057500Y-126950000D03*
X218057500Y-127450000D03*
X218057500Y-127950000D03*
X218057500Y-128450000D03*
X218057500Y-128950000D03*
X218057500Y-129450000D03*
X218057500Y-129950000D03*
X218057500Y-130450000D03*
X218057500Y-130950000D03*
X218057500Y-131450000D03*
D51*
X219470000Y-132862500D03*
X219970000Y-132862500D03*
X220470000Y-132862500D03*
X220970000Y-132862500D03*
X221470000Y-132862500D03*
X221970000Y-132862500D03*
X222470000Y-132862500D03*
X222970000Y-132862500D03*
X223470000Y-132862500D03*
X223970000Y-132862500D03*
X224470000Y-132862500D03*
X224970000Y-132862500D03*
%TD*%
D26*
%TO.C,C24*%
X173120000Y-99516250D03*
D19*
X173120000Y-97016250D03*
%TD*%
D26*
%TO.C,C15*%
X197260000Y-133710224D03*
D19*
X197260000Y-136210224D03*
%TD*%
D24*
%TO.C,C39*%
X201640000Y-56372500D03*
X201640000Y-58447500D03*
%TD*%
D20*
%TO.C,C38*%
X230102500Y-118310000D03*
X232177500Y-118310000D03*
%TD*%
D26*
%TO.C,C44*%
X217402502Y-85777500D03*
D19*
X217402502Y-83277500D03*
%TD*%
D26*
%TO.C,C23*%
X196700000Y-99756250D03*
D19*
X196700000Y-102256250D03*
%TD*%
%TO.C,C49*%
X163282233Y-61742233D03*
X166817767Y-65277767D03*
%TD*%
%TO.C,C48*%
X156710000Y-160830000D03*
X161710000Y-160830000D03*
%TD*%
D33*
%TO.C,D7*%
X167620000Y-87280000D03*
D34*
X167630000Y-90510000D03*
%TD*%
D23*
%TO.C,R17*%
X193030000Y-92180000D03*
X194855000Y-92180000D03*
%TD*%
D52*
%TO.C,C54*%
X157524874Y-65544874D03*
D16*
X155050000Y-63070000D03*
%TD*%
M02*
