%TF.GenerationSoftware,KiCad,Pcbnew,7.0.9*%
%TF.CreationDate,2024-01-15T08:13:50+05:30*%
%TF.ProjectId,controller_full6,636f6e74-726f-46c6-9c65-725f66756c6c,rev?*%
%TF.SameCoordinates,Original*%
%TF.FileFunction,Paste,Top*%
%TF.FilePolarity,Positive*%
%FSLAX46Y46*%
G04 Gerber Fmt 4.6, Leading zero omitted, Abs format (unit mm)*
G04 Created by KiCad (PCBNEW 7.0.9) date 2024-01-15 08:13:50*
%MOMM*%
%LPD*%
G01*
G04 APERTURE LIST*
G04 Aperture macros list*
%AMRoundRect*
0 Rectangle with rounded corners*
0 $1 Rounding radius*
0 $2 $3 $4 $5 $6 $7 $8 $9 X,Y pos of 4 corners*
0 Add a 4 corners polygon primitive as box body*
4,1,4,$2,$3,$4,$5,$6,$7,$8,$9,$2,$3,0*
0 Add four circle primitives for the rounded corners*
1,1,$1+$1,$2,$3*
1,1,$1+$1,$4,$5*
1,1,$1+$1,$6,$7*
1,1,$1+$1,$8,$9*
0 Add four rect primitives between the rounded corners*
20,1,$1+$1,$2,$3,$4,$5,0*
20,1,$1+$1,$4,$5,$6,$7,0*
20,1,$1+$1,$6,$7,$8,$9,0*
20,1,$1+$1,$8,$9,$2,$3,0*%
G04 Aperture macros list end*
%ADD10RoundRect,0.237500X0.237500X-0.250000X0.237500X0.250000X-0.237500X0.250000X-0.237500X-0.250000X0*%
%ADD11RoundRect,0.237500X-0.008839X-0.344715X0.344715X0.008839X0.008839X0.344715X-0.344715X-0.008839X0*%
%ADD12RoundRect,0.250000X-0.337500X-0.475000X0.337500X-0.475000X0.337500X0.475000X-0.337500X0.475000X0*%
%ADD13RoundRect,0.200747X-0.204547X0.200746X-0.204547X-0.200746X0.204547X-0.200746X0.204547X0.200746X0*%
%ADD14RoundRect,0.196500X-0.196499X0.205000X-0.196499X-0.205000X0.196499X-0.205000X0.196499X0.205000X0*%
%ADD15RoundRect,0.237500X-0.250000X-0.237500X0.250000X-0.237500X0.250000X0.237500X-0.250000X0.237500X0*%
%ADD16RoundRect,0.250000X-0.475000X0.337500X-0.475000X-0.337500X0.475000X-0.337500X0.475000X0.337500X0*%
%ADD17RoundRect,0.237500X0.250000X0.237500X-0.250000X0.237500X-0.250000X-0.237500X0.250000X-0.237500X0*%
%ADD18RoundRect,0.250000X0.475000X-0.337500X0.475000X0.337500X-0.475000X0.337500X-0.475000X-0.337500X0*%
%ADD19RoundRect,0.237500X-0.237500X0.287500X-0.237500X-0.287500X0.237500X-0.287500X0.237500X0.287500X0*%
%ADD20RoundRect,0.196500X0.196499X-0.205000X0.196499X0.205000X-0.196499X0.205000X-0.196499X-0.205000X0*%
%ADD21RoundRect,0.200747X0.204547X-0.200746X0.204547X0.200746X-0.204547X0.200746X-0.204547X-0.200746X0*%
%ADD22RoundRect,0.237500X-0.237500X0.250000X-0.237500X-0.250000X0.237500X-0.250000X0.237500X0.250000X0*%
%ADD23R,2.250000X3.200000*%
%ADD24RoundRect,0.140375X-0.200625X0.140375X-0.200625X-0.140375X0.200625X-0.140375X0.200625X0.140375X0*%
%ADD25RoundRect,0.138014X-0.202090X0.138013X-0.202090X-0.138013X0.202090X-0.138013X0.202090X0.138013X0*%
%ADD26RoundRect,0.250000X-2.050000X-0.300000X2.050000X-0.300000X2.050000X0.300000X-2.050000X0.300000X0*%
%ADD27RoundRect,0.250000X-2.025000X-2.375000X2.025000X-2.375000X2.025000X2.375000X-2.025000X2.375000X0*%
%ADD28RoundRect,0.237500X-0.237500X0.300000X-0.237500X-0.300000X0.237500X-0.300000X0.237500X0.300000X0*%
%ADD29RoundRect,0.237500X0.237500X-0.300000X0.237500X0.300000X-0.237500X0.300000X-0.237500X-0.300000X0*%
%ADD30RoundRect,0.250000X0.337500X0.475000X-0.337500X0.475000X-0.337500X-0.475000X0.337500X-0.475000X0*%
%ADD31RoundRect,0.335000X0.571400X-0.335000X0.571400X0.335000X-0.571400X0.335000X-0.571400X-0.335000X0*%
%ADD32RoundRect,0.340000X0.582497X-0.339999X0.582497X0.339999X-0.582497X0.339999X-0.582497X-0.339999X0*%
%ADD33RoundRect,0.339998X0.567496X-0.339998X0.567496X0.339998X-0.567496X0.339998X-0.567496X-0.339998X0*%
%ADD34RoundRect,0.267500X0.267500X-1.717500X0.267500X1.717500X-0.267500X1.717500X-0.267500X-1.717500X0*%
%ADD35RoundRect,0.075000X0.662500X0.075000X-0.662500X0.075000X-0.662500X-0.075000X0.662500X-0.075000X0*%
%ADD36RoundRect,0.075000X0.075000X0.662500X-0.075000X0.662500X-0.075000X-0.662500X0.075000X-0.662500X0*%
G04 APERTURE END LIST*
D10*
%TO.C,R30*%
X219020000Y-77692500D03*
X219020000Y-75867500D03*
%TD*%
D11*
%TO.C,R32*%
X192684765Y-76345235D03*
X193975235Y-75054765D03*
%TD*%
D12*
%TO.C,C42*%
X204212500Y-75620000D03*
X206287500Y-75620000D03*
%TD*%
D13*
%TO.C,D5*%
X168140000Y-134170000D03*
D14*
X168150000Y-137400000D03*
%TD*%
D15*
%TO.C,R28*%
X191817500Y-70820000D03*
X193642500Y-70820000D03*
%TD*%
D16*
%TO.C,C5*%
X190980000Y-163370000D03*
X190980000Y-165445000D03*
%TD*%
D17*
%TO.C,R10*%
X148212500Y-155475000D03*
X146387500Y-155475000D03*
%TD*%
D10*
%TO.C,R26*%
X224260000Y-153322500D03*
X224260000Y-151497500D03*
%TD*%
%TO.C,R5*%
X222640000Y-149132500D03*
X222640000Y-147307500D03*
%TD*%
D12*
%TO.C,C31*%
X230102500Y-120950000D03*
X232177500Y-120950000D03*
%TD*%
D18*
%TO.C,C58*%
X191890000Y-101857500D03*
X191890000Y-99782500D03*
%TD*%
D16*
%TO.C,C3*%
X217740000Y-141942500D03*
X217740000Y-144017500D03*
%TD*%
%TO.C,C22*%
X190827444Y-90067556D03*
X190827444Y-92142556D03*
%TD*%
D19*
%TO.C,D11*%
X227890000Y-155737500D03*
X227890000Y-157487500D03*
%TD*%
D12*
%TO.C,C12*%
X184712500Y-141175000D03*
X186787500Y-141175000D03*
%TD*%
D16*
%TO.C,C21*%
X190820000Y-95092500D03*
X190820000Y-97167500D03*
%TD*%
D10*
%TO.C,R27*%
X220920000Y-153332500D03*
X220920000Y-151507500D03*
%TD*%
D15*
%TO.C,R12*%
X193420000Y-131200224D03*
X195245000Y-131200224D03*
%TD*%
D20*
%TO.C,D1*%
X168000000Y-155680000D03*
D21*
X168010000Y-158910000D03*
%TD*%
D15*
%TO.C,R13*%
X193420000Y-126120224D03*
X195245000Y-126120224D03*
%TD*%
D22*
%TO.C,R31*%
X231800000Y-75777500D03*
X231800000Y-77602500D03*
%TD*%
D16*
%TO.C,C28*%
X188600000Y-76387500D03*
X188600000Y-78462500D03*
%TD*%
D10*
%TO.C,R6*%
X219290000Y-149142500D03*
X219290000Y-147317500D03*
%TD*%
D23*
%TO.C,D10*%
X211100000Y-63940000D03*
X204200000Y-63940000D03*
%TD*%
D12*
%TO.C,C4*%
X222392500Y-120940000D03*
X224467500Y-120940000D03*
%TD*%
D10*
%TO.C,R4*%
X225890000Y-149172500D03*
X225890000Y-147347500D03*
%TD*%
D15*
%TO.C,R16*%
X193170000Y-97150000D03*
X194995000Y-97150000D03*
%TD*%
%TO.C,R8*%
X193542556Y-165447444D03*
X195367556Y-165447444D03*
%TD*%
D19*
%TO.C,D13*%
X224230000Y-155767500D03*
X224230000Y-157517500D03*
%TD*%
D16*
%TO.C,C1*%
X224420000Y-141972500D03*
X224420000Y-144047500D03*
%TD*%
D15*
%TO.C,R20*%
X223147500Y-136670000D03*
X224972500Y-136670000D03*
%TD*%
D17*
%TO.C,R18*%
X147987500Y-87300000D03*
X146162500Y-87300000D03*
%TD*%
D18*
%TO.C,C11*%
X191832556Y-170214944D03*
X191832556Y-168139944D03*
%TD*%
D15*
%TO.C,R9*%
X193612556Y-160297444D03*
X195437556Y-160297444D03*
%TD*%
D10*
%TO.C,R7*%
X224390000Y-117105000D03*
X224390000Y-115280000D03*
%TD*%
D14*
%TO.C,D8*%
X167460000Y-103420000D03*
D13*
X167450000Y-100190000D03*
%TD*%
D16*
%TO.C,C2*%
X221110000Y-141972500D03*
X221110000Y-144047500D03*
%TD*%
D14*
%TO.C,D2*%
X167950000Y-171980000D03*
D13*
X167940000Y-168750000D03*
%TD*%
D24*
%TO.C,Z1*%
X233370000Y-102280000D03*
D25*
X233370000Y-103926778D03*
%TD*%
D10*
%TO.C,R25*%
X227990000Y-153252500D03*
X227990000Y-151427500D03*
%TD*%
D12*
%TO.C,C34*%
X213332500Y-135680000D03*
X215407500Y-135680000D03*
%TD*%
D16*
%TO.C,C13*%
X190927444Y-129105280D03*
X190927444Y-131180280D03*
%TD*%
D18*
%TO.C,C19*%
X192310000Y-136067500D03*
X192310000Y-133992500D03*
%TD*%
D22*
%TO.C,R29*%
X204180000Y-77727500D03*
X204180000Y-79552500D03*
%TD*%
D12*
%TO.C,C20*%
X184562500Y-106900000D03*
X186637500Y-106900000D03*
%TD*%
D18*
%TO.C,C6*%
X190980000Y-160317500D03*
X190980000Y-158242500D03*
%TD*%
D16*
%TO.C,C32*%
X227200000Y-133962500D03*
X227200000Y-136037500D03*
%TD*%
D18*
%TO.C,C35*%
X229790000Y-134857500D03*
X229790000Y-132782500D03*
%TD*%
D12*
%TO.C,C36*%
X230132500Y-115450000D03*
X232207500Y-115450000D03*
%TD*%
D26*
%TO.C,U5*%
X217315000Y-56270000D03*
X217315000Y-57970000D03*
X217315000Y-59670000D03*
D27*
X224040000Y-56895000D03*
X224040000Y-62445000D03*
X228890000Y-56895000D03*
X228890000Y-62445000D03*
D26*
X217315000Y-61370000D03*
X217315000Y-63070000D03*
%TD*%
D28*
%TO.C,C29*%
X234990000Y-136080000D03*
X234990000Y-137805000D03*
%TD*%
D17*
%TO.C,R15*%
X147987500Y-121400000D03*
X146162500Y-121400000D03*
%TD*%
D16*
%TO.C,C37*%
X230370000Y-102172500D03*
X230370000Y-104247500D03*
%TD*%
D19*
%TO.C,D12*%
X220850000Y-155775000D03*
X220850000Y-157525000D03*
%TD*%
D29*
%TO.C,C30*%
X234960000Y-122392500D03*
X234960000Y-120667500D03*
%TD*%
D20*
%TO.C,D4*%
X167960000Y-121412000D03*
D21*
X167970000Y-124642000D03*
%TD*%
D30*
%TO.C,C33*%
X219907500Y-120930000D03*
X217832500Y-120930000D03*
%TD*%
D16*
%TO.C,C14*%
X190907444Y-124035280D03*
X190907444Y-126110280D03*
%TD*%
D31*
%TO.C,U6*%
X222038600Y-93845000D03*
D32*
X222022503Y-90704999D03*
D33*
X222027506Y-87855004D03*
D34*
X227980000Y-90630000D03*
%TD*%
D35*
%TO.C,U4*%
X226382500Y-131450000D03*
X226382500Y-130950000D03*
X226382500Y-130450000D03*
X226382500Y-129950000D03*
X226382500Y-129450000D03*
X226382500Y-128950000D03*
X226382500Y-128450000D03*
X226382500Y-127950000D03*
X226382500Y-127450000D03*
X226382500Y-126950000D03*
X226382500Y-126450000D03*
X226382500Y-125950000D03*
D36*
X224970000Y-124537500D03*
X224470000Y-124537500D03*
X223970000Y-124537500D03*
X223470000Y-124537500D03*
X222970000Y-124537500D03*
X222470000Y-124537500D03*
X221970000Y-124537500D03*
X221470000Y-124537500D03*
X220970000Y-124537500D03*
X220470000Y-124537500D03*
X219970000Y-124537500D03*
X219470000Y-124537500D03*
D35*
X218057500Y-125950000D03*
X218057500Y-126450000D03*
X218057500Y-126950000D03*
X218057500Y-127450000D03*
X218057500Y-127950000D03*
X218057500Y-128450000D03*
X218057500Y-128950000D03*
X218057500Y-129450000D03*
X218057500Y-129950000D03*
X218057500Y-130450000D03*
X218057500Y-130950000D03*
X218057500Y-131450000D03*
D36*
X219470000Y-132862500D03*
X219970000Y-132862500D03*
X220470000Y-132862500D03*
X220970000Y-132862500D03*
X221470000Y-132862500D03*
X221970000Y-132862500D03*
X222470000Y-132862500D03*
X222970000Y-132862500D03*
X223470000Y-132862500D03*
X223970000Y-132862500D03*
X224470000Y-132862500D03*
X224970000Y-132862500D03*
%TD*%
D16*
%TO.C,C39*%
X201640000Y-56372500D03*
X201640000Y-58447500D03*
%TD*%
D12*
%TO.C,C38*%
X230102500Y-118310000D03*
X232177500Y-118310000D03*
%TD*%
D20*
%TO.C,D7*%
X167620000Y-87280000D03*
D21*
X167630000Y-90510000D03*
%TD*%
D15*
%TO.C,R17*%
X193030000Y-92180000D03*
X194855000Y-92180000D03*
%TD*%
G36*
X175756104Y-53254838D02*
G01*
X175816430Y-53281843D01*
X176971144Y-54236152D01*
X177010279Y-54294032D01*
X177010838Y-54295828D01*
X177708124Y-56600744D01*
X177708695Y-56670612D01*
X177706125Y-56678597D01*
X177180561Y-58140618D01*
X177146784Y-58190875D01*
X175903573Y-59308802D01*
X175849145Y-59337282D01*
X174296302Y-59703792D01*
X174243500Y-59704700D01*
X172901226Y-59436245D01*
X172845648Y-59409483D01*
X171600000Y-58360000D01*
X168620001Y-58360000D01*
X157806564Y-69167640D01*
X157806564Y-167544541D01*
X157806256Y-167550715D01*
X157797462Y-167638659D01*
X157794375Y-167656394D01*
X157736564Y-167887639D01*
X157662030Y-168148507D01*
X157645387Y-168184099D01*
X157130552Y-168942310D01*
X157076607Y-168986715D01*
X157065911Y-168990705D01*
X156005069Y-169331691D01*
X155967124Y-169337639D01*
X155660548Y-169337639D01*
X155652605Y-169337129D01*
X155359076Y-169299253D01*
X155334635Y-169293538D01*
X155030459Y-169188978D01*
X155022878Y-169185796D01*
X154810276Y-169079495D01*
X154803132Y-169075305D01*
X154564918Y-168913320D01*
X154549240Y-168900681D01*
X154356564Y-168717639D01*
X142902492Y-168717639D01*
X142835453Y-168697954D01*
X142789698Y-168645150D01*
X142779754Y-168575992D01*
X142794502Y-168532694D01*
X143316563Y-167607639D01*
X142788825Y-166916922D01*
X142763766Y-166851700D01*
X142777946Y-166783285D01*
X142826863Y-166733396D01*
X142887357Y-166717639D01*
X153806564Y-166717639D01*
X153806564Y-134437639D01*
X142682807Y-134437639D01*
X142615768Y-134417954D01*
X142570013Y-134365150D01*
X142560069Y-134295992D01*
X142589094Y-134232436D01*
X142615143Y-134209727D01*
X142756562Y-134117639D01*
X143076564Y-133517638D01*
X142826564Y-132747641D01*
X142826562Y-132747637D01*
X142743382Y-132635524D01*
X142719245Y-132569956D01*
X142734389Y-132501747D01*
X142784006Y-132452553D01*
X142842966Y-132437639D01*
X153806564Y-132437639D01*
X153806564Y-100447639D01*
X142429232Y-100447639D01*
X142362193Y-100427954D01*
X142316438Y-100375150D01*
X142306494Y-100305992D01*
X142335519Y-100242436D01*
X142337997Y-100239662D01*
X142956564Y-99567638D01*
X142429361Y-98622021D01*
X142413909Y-98553882D01*
X142437749Y-98488205D01*
X142493312Y-98445843D01*
X142537666Y-98437639D01*
X153806564Y-98437639D01*
X153806564Y-68147902D01*
X153808251Y-68127517D01*
X153836314Y-67959135D01*
X153836886Y-67956156D01*
X153885853Y-67730907D01*
X153887621Y-67724467D01*
X153946564Y-67547639D01*
X154028108Y-67321126D01*
X154053448Y-67279253D01*
X154486564Y-66807639D01*
X166266564Y-55047639D01*
X166513826Y-54800375D01*
X166519608Y-54795271D01*
X166606564Y-54727639D01*
X166654463Y-54689319D01*
X166658806Y-54686143D01*
X166686571Y-54667633D01*
X166686571Y-54667634D01*
X166823787Y-54557860D01*
X166851548Y-54541084D01*
X167152650Y-54409351D01*
X167160680Y-54406478D01*
X167530056Y-54302295D01*
X167563717Y-54297639D01*
X171486564Y-54297639D01*
X171486565Y-54297638D01*
X172303373Y-53564915D01*
X172340785Y-53541824D01*
X173788937Y-52972217D01*
X173852994Y-52965024D01*
X175756104Y-53254838D01*
G37*
M02*
