%TF.GenerationSoftware,KiCad,Pcbnew,7.0.9*%
%TF.CreationDate,2024-01-15T08:13:50+05:30*%
%TF.ProjectId,controller_full6,636f6e74-726f-46c6-9c65-725f66756c6c,rev?*%
%TF.SameCoordinates,Original*%
%TF.FileFunction,Legend,Bot*%
%TF.FilePolarity,Positive*%
%FSLAX46Y46*%
G04 Gerber Fmt 4.6, Leading zero omitted, Abs format (unit mm)*
G04 Created by KiCad (PCBNEW 7.0.9) date 2024-01-15 08:13:50*
%MOMM*%
%LPD*%
G01*
G04 APERTURE LIST*
%ADD10C,0.150000*%
%ADD11C,0.100000*%
%ADD12C,0.120000*%
G04 APERTURE END LIST*
D10*
X177549580Y-94329642D02*
X177597200Y-94282023D01*
X177597200Y-94282023D02*
X177644819Y-94139166D01*
X177644819Y-94139166D02*
X177644819Y-94043928D01*
X177644819Y-94043928D02*
X177597200Y-93901071D01*
X177597200Y-93901071D02*
X177501961Y-93805833D01*
X177501961Y-93805833D02*
X177406723Y-93758214D01*
X177406723Y-93758214D02*
X177216247Y-93710595D01*
X177216247Y-93710595D02*
X177073390Y-93710595D01*
X177073390Y-93710595D02*
X176882914Y-93758214D01*
X176882914Y-93758214D02*
X176787676Y-93805833D01*
X176787676Y-93805833D02*
X176692438Y-93901071D01*
X176692438Y-93901071D02*
X176644819Y-94043928D01*
X176644819Y-94043928D02*
X176644819Y-94139166D01*
X176644819Y-94139166D02*
X176692438Y-94282023D01*
X176692438Y-94282023D02*
X176740057Y-94329642D01*
X176740057Y-94710595D02*
X176692438Y-94758214D01*
X176692438Y-94758214D02*
X176644819Y-94853452D01*
X176644819Y-94853452D02*
X176644819Y-95091547D01*
X176644819Y-95091547D02*
X176692438Y-95186785D01*
X176692438Y-95186785D02*
X176740057Y-95234404D01*
X176740057Y-95234404D02*
X176835295Y-95282023D01*
X176835295Y-95282023D02*
X176930533Y-95282023D01*
X176930533Y-95282023D02*
X177073390Y-95234404D01*
X177073390Y-95234404D02*
X177644819Y-94662976D01*
X177644819Y-94662976D02*
X177644819Y-95282023D01*
X176644819Y-96139166D02*
X176644819Y-95948690D01*
X176644819Y-95948690D02*
X176692438Y-95853452D01*
X176692438Y-95853452D02*
X176740057Y-95805833D01*
X176740057Y-95805833D02*
X176882914Y-95710595D01*
X176882914Y-95710595D02*
X177073390Y-95662976D01*
X177073390Y-95662976D02*
X177454342Y-95662976D01*
X177454342Y-95662976D02*
X177549580Y-95710595D01*
X177549580Y-95710595D02*
X177597200Y-95758214D01*
X177597200Y-95758214D02*
X177644819Y-95853452D01*
X177644819Y-95853452D02*
X177644819Y-96043928D01*
X177644819Y-96043928D02*
X177597200Y-96139166D01*
X177597200Y-96139166D02*
X177549580Y-96186785D01*
X177549580Y-96186785D02*
X177454342Y-96234404D01*
X177454342Y-96234404D02*
X177216247Y-96234404D01*
X177216247Y-96234404D02*
X177121009Y-96186785D01*
X177121009Y-96186785D02*
X177073390Y-96139166D01*
X177073390Y-96139166D02*
X177025771Y-96043928D01*
X177025771Y-96043928D02*
X177025771Y-95853452D01*
X177025771Y-95853452D02*
X177073390Y-95758214D01*
X177073390Y-95758214D02*
X177121009Y-95710595D01*
X177121009Y-95710595D02*
X177216247Y-95662976D01*
X226544819Y-165625833D02*
X226068628Y-165292500D01*
X226544819Y-165054405D02*
X225544819Y-165054405D01*
X225544819Y-165054405D02*
X225544819Y-165435357D01*
X225544819Y-165435357D02*
X225592438Y-165530595D01*
X225592438Y-165530595D02*
X225640057Y-165578214D01*
X225640057Y-165578214D02*
X225735295Y-165625833D01*
X225735295Y-165625833D02*
X225878152Y-165625833D01*
X225878152Y-165625833D02*
X225973390Y-165578214D01*
X225973390Y-165578214D02*
X226021009Y-165530595D01*
X226021009Y-165530595D02*
X226068628Y-165435357D01*
X226068628Y-165435357D02*
X226068628Y-165054405D01*
X225544819Y-165959167D02*
X225544819Y-166578214D01*
X225544819Y-166578214D02*
X225925771Y-166244881D01*
X225925771Y-166244881D02*
X225925771Y-166387738D01*
X225925771Y-166387738D02*
X225973390Y-166482976D01*
X225973390Y-166482976D02*
X226021009Y-166530595D01*
X226021009Y-166530595D02*
X226116247Y-166578214D01*
X226116247Y-166578214D02*
X226354342Y-166578214D01*
X226354342Y-166578214D02*
X226449580Y-166530595D01*
X226449580Y-166530595D02*
X226497200Y-166482976D01*
X226497200Y-166482976D02*
X226544819Y-166387738D01*
X226544819Y-166387738D02*
X226544819Y-166102024D01*
X226544819Y-166102024D02*
X226497200Y-166006786D01*
X226497200Y-166006786D02*
X226449580Y-165959167D01*
X186464819Y-129509629D02*
X185464819Y-129509629D01*
X185464819Y-129509629D02*
X185464819Y-129747724D01*
X185464819Y-129747724D02*
X185512438Y-129890581D01*
X185512438Y-129890581D02*
X185607676Y-129985819D01*
X185607676Y-129985819D02*
X185702914Y-130033438D01*
X185702914Y-130033438D02*
X185893390Y-130081057D01*
X185893390Y-130081057D02*
X186036247Y-130081057D01*
X186036247Y-130081057D02*
X186226723Y-130033438D01*
X186226723Y-130033438D02*
X186321961Y-129985819D01*
X186321961Y-129985819D02*
X186417200Y-129890581D01*
X186417200Y-129890581D02*
X186464819Y-129747724D01*
X186464819Y-129747724D02*
X186464819Y-129509629D01*
X185464819Y-130938200D02*
X185464819Y-130747724D01*
X185464819Y-130747724D02*
X185512438Y-130652486D01*
X185512438Y-130652486D02*
X185560057Y-130604867D01*
X185560057Y-130604867D02*
X185702914Y-130509629D01*
X185702914Y-130509629D02*
X185893390Y-130462010D01*
X185893390Y-130462010D02*
X186274342Y-130462010D01*
X186274342Y-130462010D02*
X186369580Y-130509629D01*
X186369580Y-130509629D02*
X186417200Y-130557248D01*
X186417200Y-130557248D02*
X186464819Y-130652486D01*
X186464819Y-130652486D02*
X186464819Y-130842962D01*
X186464819Y-130842962D02*
X186417200Y-130938200D01*
X186417200Y-130938200D02*
X186369580Y-130985819D01*
X186369580Y-130985819D02*
X186274342Y-131033438D01*
X186274342Y-131033438D02*
X186036247Y-131033438D01*
X186036247Y-131033438D02*
X185941009Y-130985819D01*
X185941009Y-130985819D02*
X185893390Y-130938200D01*
X185893390Y-130938200D02*
X185845771Y-130842962D01*
X185845771Y-130842962D02*
X185845771Y-130652486D01*
X185845771Y-130652486D02*
X185893390Y-130557248D01*
X185893390Y-130557248D02*
X185941009Y-130509629D01*
X185941009Y-130509629D02*
X186036247Y-130462010D01*
X147092857Y-169394819D02*
X147426190Y-168918628D01*
X147664285Y-169394819D02*
X147664285Y-168394819D01*
X147664285Y-168394819D02*
X147283333Y-168394819D01*
X147283333Y-168394819D02*
X147188095Y-168442438D01*
X147188095Y-168442438D02*
X147140476Y-168490057D01*
X147140476Y-168490057D02*
X147092857Y-168585295D01*
X147092857Y-168585295D02*
X147092857Y-168728152D01*
X147092857Y-168728152D02*
X147140476Y-168823390D01*
X147140476Y-168823390D02*
X147188095Y-168871009D01*
X147188095Y-168871009D02*
X147283333Y-168918628D01*
X147283333Y-168918628D02*
X147664285Y-168918628D01*
X146140476Y-169394819D02*
X146711904Y-169394819D01*
X146426190Y-169394819D02*
X146426190Y-168394819D01*
X146426190Y-168394819D02*
X146521428Y-168537676D01*
X146521428Y-168537676D02*
X146616666Y-168632914D01*
X146616666Y-168632914D02*
X146711904Y-168680533D01*
X145188095Y-169394819D02*
X145759523Y-169394819D01*
X145473809Y-169394819D02*
X145473809Y-168394819D01*
X145473809Y-168394819D02*
X145569047Y-168537676D01*
X145569047Y-168537676D02*
X145664285Y-168632914D01*
X145664285Y-168632914D02*
X145759523Y-168680533D01*
X148084819Y-132337142D02*
X147608628Y-132003809D01*
X148084819Y-131765714D02*
X147084819Y-131765714D01*
X147084819Y-131765714D02*
X147084819Y-132146666D01*
X147084819Y-132146666D02*
X147132438Y-132241904D01*
X147132438Y-132241904D02*
X147180057Y-132289523D01*
X147180057Y-132289523D02*
X147275295Y-132337142D01*
X147275295Y-132337142D02*
X147418152Y-132337142D01*
X147418152Y-132337142D02*
X147513390Y-132289523D01*
X147513390Y-132289523D02*
X147561009Y-132241904D01*
X147561009Y-132241904D02*
X147608628Y-132146666D01*
X147608628Y-132146666D02*
X147608628Y-131765714D01*
X147180057Y-132718095D02*
X147132438Y-132765714D01*
X147132438Y-132765714D02*
X147084819Y-132860952D01*
X147084819Y-132860952D02*
X147084819Y-133099047D01*
X147084819Y-133099047D02*
X147132438Y-133194285D01*
X147132438Y-133194285D02*
X147180057Y-133241904D01*
X147180057Y-133241904D02*
X147275295Y-133289523D01*
X147275295Y-133289523D02*
X147370533Y-133289523D01*
X147370533Y-133289523D02*
X147513390Y-133241904D01*
X147513390Y-133241904D02*
X148084819Y-132670476D01*
X148084819Y-132670476D02*
X148084819Y-133289523D01*
X147084819Y-133622857D02*
X147084819Y-134241904D01*
X147084819Y-134241904D02*
X147465771Y-133908571D01*
X147465771Y-133908571D02*
X147465771Y-134051428D01*
X147465771Y-134051428D02*
X147513390Y-134146666D01*
X147513390Y-134146666D02*
X147561009Y-134194285D01*
X147561009Y-134194285D02*
X147656247Y-134241904D01*
X147656247Y-134241904D02*
X147894342Y-134241904D01*
X147894342Y-134241904D02*
X147989580Y-134194285D01*
X147989580Y-134194285D02*
X148037200Y-134146666D01*
X148037200Y-134146666D02*
X148084819Y-134051428D01*
X148084819Y-134051428D02*
X148084819Y-133765714D01*
X148084819Y-133765714D02*
X148037200Y-133670476D01*
X148037200Y-133670476D02*
X147989580Y-133622857D01*
X200792857Y-66739580D02*
X200840476Y-66787200D01*
X200840476Y-66787200D02*
X200983333Y-66834819D01*
X200983333Y-66834819D02*
X201078571Y-66834819D01*
X201078571Y-66834819D02*
X201221428Y-66787200D01*
X201221428Y-66787200D02*
X201316666Y-66691961D01*
X201316666Y-66691961D02*
X201364285Y-66596723D01*
X201364285Y-66596723D02*
X201411904Y-66406247D01*
X201411904Y-66406247D02*
X201411904Y-66263390D01*
X201411904Y-66263390D02*
X201364285Y-66072914D01*
X201364285Y-66072914D02*
X201316666Y-65977676D01*
X201316666Y-65977676D02*
X201221428Y-65882438D01*
X201221428Y-65882438D02*
X201078571Y-65834819D01*
X201078571Y-65834819D02*
X200983333Y-65834819D01*
X200983333Y-65834819D02*
X200840476Y-65882438D01*
X200840476Y-65882438D02*
X200792857Y-65930057D01*
X199935714Y-66168152D02*
X199935714Y-66834819D01*
X200173809Y-65787200D02*
X200411904Y-66501485D01*
X200411904Y-66501485D02*
X199792857Y-66501485D01*
X199507142Y-65834819D02*
X198888095Y-65834819D01*
X198888095Y-65834819D02*
X199221428Y-66215771D01*
X199221428Y-66215771D02*
X199078571Y-66215771D01*
X199078571Y-66215771D02*
X198983333Y-66263390D01*
X198983333Y-66263390D02*
X198935714Y-66311009D01*
X198935714Y-66311009D02*
X198888095Y-66406247D01*
X198888095Y-66406247D02*
X198888095Y-66644342D01*
X198888095Y-66644342D02*
X198935714Y-66739580D01*
X198935714Y-66739580D02*
X198983333Y-66787200D01*
X198983333Y-66787200D02*
X199078571Y-66834819D01*
X199078571Y-66834819D02*
X199364285Y-66834819D01*
X199364285Y-66834819D02*
X199459523Y-66787200D01*
X199459523Y-66787200D02*
X199507142Y-66739580D01*
D11*
X223967419Y-94137254D02*
X223967419Y-94803920D01*
X223967419Y-94803920D02*
X224967419Y-94137254D01*
X224967419Y-94137254D02*
X224967419Y-94803920D01*
X224062657Y-95137254D02*
X224015038Y-95184873D01*
X224015038Y-95184873D02*
X223967419Y-95280111D01*
X223967419Y-95280111D02*
X223967419Y-95518206D01*
X223967419Y-95518206D02*
X224015038Y-95613444D01*
X224015038Y-95613444D02*
X224062657Y-95661063D01*
X224062657Y-95661063D02*
X224157895Y-95708682D01*
X224157895Y-95708682D02*
X224253133Y-95708682D01*
X224253133Y-95708682D02*
X224395990Y-95661063D01*
X224395990Y-95661063D02*
X224967419Y-95089635D01*
X224967419Y-95089635D02*
X224967419Y-95708682D01*
D10*
X219614819Y-165625833D02*
X219138628Y-165292500D01*
X219614819Y-165054405D02*
X218614819Y-165054405D01*
X218614819Y-165054405D02*
X218614819Y-165435357D01*
X218614819Y-165435357D02*
X218662438Y-165530595D01*
X218662438Y-165530595D02*
X218710057Y-165578214D01*
X218710057Y-165578214D02*
X218805295Y-165625833D01*
X218805295Y-165625833D02*
X218948152Y-165625833D01*
X218948152Y-165625833D02*
X219043390Y-165578214D01*
X219043390Y-165578214D02*
X219091009Y-165530595D01*
X219091009Y-165530595D02*
X219138628Y-165435357D01*
X219138628Y-165435357D02*
X219138628Y-165054405D01*
X219614819Y-166578214D02*
X219614819Y-166006786D01*
X219614819Y-166292500D02*
X218614819Y-166292500D01*
X218614819Y-166292500D02*
X218757676Y-166197262D01*
X218757676Y-166197262D02*
X218852914Y-166102024D01*
X218852914Y-166102024D02*
X218900533Y-166006786D01*
X177449580Y-127567142D02*
X177497200Y-127519523D01*
X177497200Y-127519523D02*
X177544819Y-127376666D01*
X177544819Y-127376666D02*
X177544819Y-127281428D01*
X177544819Y-127281428D02*
X177497200Y-127138571D01*
X177497200Y-127138571D02*
X177401961Y-127043333D01*
X177401961Y-127043333D02*
X177306723Y-126995714D01*
X177306723Y-126995714D02*
X177116247Y-126948095D01*
X177116247Y-126948095D02*
X176973390Y-126948095D01*
X176973390Y-126948095D02*
X176782914Y-126995714D01*
X176782914Y-126995714D02*
X176687676Y-127043333D01*
X176687676Y-127043333D02*
X176592438Y-127138571D01*
X176592438Y-127138571D02*
X176544819Y-127281428D01*
X176544819Y-127281428D02*
X176544819Y-127376666D01*
X176544819Y-127376666D02*
X176592438Y-127519523D01*
X176592438Y-127519523D02*
X176640057Y-127567142D01*
X176544819Y-128471904D02*
X176544819Y-127995714D01*
X176544819Y-127995714D02*
X177021009Y-127948095D01*
X177021009Y-127948095D02*
X176973390Y-127995714D01*
X176973390Y-127995714D02*
X176925771Y-128090952D01*
X176925771Y-128090952D02*
X176925771Y-128329047D01*
X176925771Y-128329047D02*
X176973390Y-128424285D01*
X176973390Y-128424285D02*
X177021009Y-128471904D01*
X177021009Y-128471904D02*
X177116247Y-128519523D01*
X177116247Y-128519523D02*
X177354342Y-128519523D01*
X177354342Y-128519523D02*
X177449580Y-128471904D01*
X177449580Y-128471904D02*
X177497200Y-128424285D01*
X177497200Y-128424285D02*
X177544819Y-128329047D01*
X177544819Y-128329047D02*
X177544819Y-128090952D01*
X177544819Y-128090952D02*
X177497200Y-127995714D01*
X177497200Y-127995714D02*
X177449580Y-127948095D01*
X176544819Y-129376666D02*
X176544819Y-129186190D01*
X176544819Y-129186190D02*
X176592438Y-129090952D01*
X176592438Y-129090952D02*
X176640057Y-129043333D01*
X176640057Y-129043333D02*
X176782914Y-128948095D01*
X176782914Y-128948095D02*
X176973390Y-128900476D01*
X176973390Y-128900476D02*
X177354342Y-128900476D01*
X177354342Y-128900476D02*
X177449580Y-128948095D01*
X177449580Y-128948095D02*
X177497200Y-128995714D01*
X177497200Y-128995714D02*
X177544819Y-129090952D01*
X177544819Y-129090952D02*
X177544819Y-129281428D01*
X177544819Y-129281428D02*
X177497200Y-129376666D01*
X177497200Y-129376666D02*
X177449580Y-129424285D01*
X177449580Y-129424285D02*
X177354342Y-129471904D01*
X177354342Y-129471904D02*
X177116247Y-129471904D01*
X177116247Y-129471904D02*
X177021009Y-129424285D01*
X177021009Y-129424285D02*
X176973390Y-129376666D01*
X176973390Y-129376666D02*
X176925771Y-129281428D01*
X176925771Y-129281428D02*
X176925771Y-129090952D01*
X176925771Y-129090952D02*
X176973390Y-128995714D01*
X176973390Y-128995714D02*
X177021009Y-128948095D01*
X177021009Y-128948095D02*
X177116247Y-128900476D01*
X223562857Y-68464819D02*
X223896190Y-67988628D01*
X224134285Y-68464819D02*
X224134285Y-67464819D01*
X224134285Y-67464819D02*
X223753333Y-67464819D01*
X223753333Y-67464819D02*
X223658095Y-67512438D01*
X223658095Y-67512438D02*
X223610476Y-67560057D01*
X223610476Y-67560057D02*
X223562857Y-67655295D01*
X223562857Y-67655295D02*
X223562857Y-67798152D01*
X223562857Y-67798152D02*
X223610476Y-67893390D01*
X223610476Y-67893390D02*
X223658095Y-67941009D01*
X223658095Y-67941009D02*
X223753333Y-67988628D01*
X223753333Y-67988628D02*
X224134285Y-67988628D01*
X223181904Y-67560057D02*
X223134285Y-67512438D01*
X223134285Y-67512438D02*
X223039047Y-67464819D01*
X223039047Y-67464819D02*
X222800952Y-67464819D01*
X222800952Y-67464819D02*
X222705714Y-67512438D01*
X222705714Y-67512438D02*
X222658095Y-67560057D01*
X222658095Y-67560057D02*
X222610476Y-67655295D01*
X222610476Y-67655295D02*
X222610476Y-67750533D01*
X222610476Y-67750533D02*
X222658095Y-67893390D01*
X222658095Y-67893390D02*
X223229523Y-68464819D01*
X223229523Y-68464819D02*
X222610476Y-68464819D01*
X221658095Y-68464819D02*
X222229523Y-68464819D01*
X221943809Y-68464819D02*
X221943809Y-67464819D01*
X221943809Y-67464819D02*
X222039047Y-67607676D01*
X222039047Y-67607676D02*
X222134285Y-67702914D01*
X222134285Y-67702914D02*
X222229523Y-67750533D01*
X148264819Y-166967142D02*
X147788628Y-166633809D01*
X148264819Y-166395714D02*
X147264819Y-166395714D01*
X147264819Y-166395714D02*
X147264819Y-166776666D01*
X147264819Y-166776666D02*
X147312438Y-166871904D01*
X147312438Y-166871904D02*
X147360057Y-166919523D01*
X147360057Y-166919523D02*
X147455295Y-166967142D01*
X147455295Y-166967142D02*
X147598152Y-166967142D01*
X147598152Y-166967142D02*
X147693390Y-166919523D01*
X147693390Y-166919523D02*
X147741009Y-166871904D01*
X147741009Y-166871904D02*
X147788628Y-166776666D01*
X147788628Y-166776666D02*
X147788628Y-166395714D01*
X147360057Y-167348095D02*
X147312438Y-167395714D01*
X147312438Y-167395714D02*
X147264819Y-167490952D01*
X147264819Y-167490952D02*
X147264819Y-167729047D01*
X147264819Y-167729047D02*
X147312438Y-167824285D01*
X147312438Y-167824285D02*
X147360057Y-167871904D01*
X147360057Y-167871904D02*
X147455295Y-167919523D01*
X147455295Y-167919523D02*
X147550533Y-167919523D01*
X147550533Y-167919523D02*
X147693390Y-167871904D01*
X147693390Y-167871904D02*
X148264819Y-167300476D01*
X148264819Y-167300476D02*
X148264819Y-167919523D01*
X147360057Y-168300476D02*
X147312438Y-168348095D01*
X147312438Y-168348095D02*
X147264819Y-168443333D01*
X147264819Y-168443333D02*
X147264819Y-168681428D01*
X147264819Y-168681428D02*
X147312438Y-168776666D01*
X147312438Y-168776666D02*
X147360057Y-168824285D01*
X147360057Y-168824285D02*
X147455295Y-168871904D01*
X147455295Y-168871904D02*
X147550533Y-168871904D01*
X147550533Y-168871904D02*
X147693390Y-168824285D01*
X147693390Y-168824285D02*
X148264819Y-168252857D01*
X148264819Y-168252857D02*
X148264819Y-168871904D01*
X147122857Y-101014819D02*
X147456190Y-100538628D01*
X147694285Y-101014819D02*
X147694285Y-100014819D01*
X147694285Y-100014819D02*
X147313333Y-100014819D01*
X147313333Y-100014819D02*
X147218095Y-100062438D01*
X147218095Y-100062438D02*
X147170476Y-100110057D01*
X147170476Y-100110057D02*
X147122857Y-100205295D01*
X147122857Y-100205295D02*
X147122857Y-100348152D01*
X147122857Y-100348152D02*
X147170476Y-100443390D01*
X147170476Y-100443390D02*
X147218095Y-100491009D01*
X147218095Y-100491009D02*
X147313333Y-100538628D01*
X147313333Y-100538628D02*
X147694285Y-100538628D01*
X146170476Y-101014819D02*
X146741904Y-101014819D01*
X146456190Y-101014819D02*
X146456190Y-100014819D01*
X146456190Y-100014819D02*
X146551428Y-100157676D01*
X146551428Y-100157676D02*
X146646666Y-100252914D01*
X146646666Y-100252914D02*
X146741904Y-100300533D01*
X145694285Y-101014819D02*
X145503809Y-101014819D01*
X145503809Y-101014819D02*
X145408571Y-100967200D01*
X145408571Y-100967200D02*
X145360952Y-100919580D01*
X145360952Y-100919580D02*
X145265714Y-100776723D01*
X145265714Y-100776723D02*
X145218095Y-100586247D01*
X145218095Y-100586247D02*
X145218095Y-100205295D01*
X145218095Y-100205295D02*
X145265714Y-100110057D01*
X145265714Y-100110057D02*
X145313333Y-100062438D01*
X145313333Y-100062438D02*
X145408571Y-100014819D01*
X145408571Y-100014819D02*
X145599047Y-100014819D01*
X145599047Y-100014819D02*
X145694285Y-100062438D01*
X145694285Y-100062438D02*
X145741904Y-100110057D01*
X145741904Y-100110057D02*
X145789523Y-100205295D01*
X145789523Y-100205295D02*
X145789523Y-100443390D01*
X145789523Y-100443390D02*
X145741904Y-100538628D01*
X145741904Y-100538628D02*
X145694285Y-100586247D01*
X145694285Y-100586247D02*
X145599047Y-100633866D01*
X145599047Y-100633866D02*
X145408571Y-100633866D01*
X145408571Y-100633866D02*
X145313333Y-100586247D01*
X145313333Y-100586247D02*
X145265714Y-100538628D01*
X145265714Y-100538628D02*
X145218095Y-100443390D01*
X177752136Y-162274586D02*
X177799756Y-162226967D01*
X177799756Y-162226967D02*
X177847375Y-162084110D01*
X177847375Y-162084110D02*
X177847375Y-161988872D01*
X177847375Y-161988872D02*
X177799756Y-161846015D01*
X177799756Y-161846015D02*
X177704517Y-161750777D01*
X177704517Y-161750777D02*
X177609279Y-161703158D01*
X177609279Y-161703158D02*
X177418803Y-161655539D01*
X177418803Y-161655539D02*
X177275946Y-161655539D01*
X177275946Y-161655539D02*
X177085470Y-161703158D01*
X177085470Y-161703158D02*
X176990232Y-161750777D01*
X176990232Y-161750777D02*
X176894994Y-161846015D01*
X176894994Y-161846015D02*
X176847375Y-161988872D01*
X176847375Y-161988872D02*
X176847375Y-162084110D01*
X176847375Y-162084110D02*
X176894994Y-162226967D01*
X176894994Y-162226967D02*
X176942613Y-162274586D01*
X176847375Y-163179348D02*
X176847375Y-162703158D01*
X176847375Y-162703158D02*
X177323565Y-162655539D01*
X177323565Y-162655539D02*
X177275946Y-162703158D01*
X177275946Y-162703158D02*
X177228327Y-162798396D01*
X177228327Y-162798396D02*
X177228327Y-163036491D01*
X177228327Y-163036491D02*
X177275946Y-163131729D01*
X177275946Y-163131729D02*
X177323565Y-163179348D01*
X177323565Y-163179348D02*
X177418803Y-163226967D01*
X177418803Y-163226967D02*
X177656898Y-163226967D01*
X177656898Y-163226967D02*
X177752136Y-163179348D01*
X177752136Y-163179348D02*
X177799756Y-163131729D01*
X177799756Y-163131729D02*
X177847375Y-163036491D01*
X177847375Y-163036491D02*
X177847375Y-162798396D01*
X177847375Y-162798396D02*
X177799756Y-162703158D01*
X177799756Y-162703158D02*
X177752136Y-162655539D01*
X176847375Y-163560301D02*
X176847375Y-164226967D01*
X176847375Y-164226967D02*
X177847375Y-163798396D01*
X186274819Y-95395655D02*
X185274819Y-95395655D01*
X185274819Y-95395655D02*
X185274819Y-95633750D01*
X185274819Y-95633750D02*
X185322438Y-95776607D01*
X185322438Y-95776607D02*
X185417676Y-95871845D01*
X185417676Y-95871845D02*
X185512914Y-95919464D01*
X185512914Y-95919464D02*
X185703390Y-95967083D01*
X185703390Y-95967083D02*
X185846247Y-95967083D01*
X185846247Y-95967083D02*
X186036723Y-95919464D01*
X186036723Y-95919464D02*
X186131961Y-95871845D01*
X186131961Y-95871845D02*
X186227200Y-95776607D01*
X186227200Y-95776607D02*
X186274819Y-95633750D01*
X186274819Y-95633750D02*
X186274819Y-95395655D01*
X186274819Y-96443274D02*
X186274819Y-96633750D01*
X186274819Y-96633750D02*
X186227200Y-96728988D01*
X186227200Y-96728988D02*
X186179580Y-96776607D01*
X186179580Y-96776607D02*
X186036723Y-96871845D01*
X186036723Y-96871845D02*
X185846247Y-96919464D01*
X185846247Y-96919464D02*
X185465295Y-96919464D01*
X185465295Y-96919464D02*
X185370057Y-96871845D01*
X185370057Y-96871845D02*
X185322438Y-96824226D01*
X185322438Y-96824226D02*
X185274819Y-96728988D01*
X185274819Y-96728988D02*
X185274819Y-96538512D01*
X185274819Y-96538512D02*
X185322438Y-96443274D01*
X185322438Y-96443274D02*
X185370057Y-96395655D01*
X185370057Y-96395655D02*
X185465295Y-96348036D01*
X185465295Y-96348036D02*
X185703390Y-96348036D01*
X185703390Y-96348036D02*
X185798628Y-96395655D01*
X185798628Y-96395655D02*
X185846247Y-96443274D01*
X185846247Y-96443274D02*
X185893866Y-96538512D01*
X185893866Y-96538512D02*
X185893866Y-96728988D01*
X185893866Y-96728988D02*
X185846247Y-96824226D01*
X185846247Y-96824226D02*
X185798628Y-96871845D01*
X185798628Y-96871845D02*
X185703390Y-96919464D01*
X186497375Y-163629349D02*
X185497375Y-163629349D01*
X185497375Y-163629349D02*
X185497375Y-163867444D01*
X185497375Y-163867444D02*
X185544994Y-164010301D01*
X185544994Y-164010301D02*
X185640232Y-164105539D01*
X185640232Y-164105539D02*
X185735470Y-164153158D01*
X185735470Y-164153158D02*
X185925946Y-164200777D01*
X185925946Y-164200777D02*
X186068803Y-164200777D01*
X186068803Y-164200777D02*
X186259279Y-164153158D01*
X186259279Y-164153158D02*
X186354517Y-164105539D01*
X186354517Y-164105539D02*
X186449756Y-164010301D01*
X186449756Y-164010301D02*
X186497375Y-163867444D01*
X186497375Y-163867444D02*
X186497375Y-163629349D01*
X185497375Y-164534111D02*
X185497375Y-165153158D01*
X185497375Y-165153158D02*
X185878327Y-164819825D01*
X185878327Y-164819825D02*
X185878327Y-164962682D01*
X185878327Y-164962682D02*
X185925946Y-165057920D01*
X185925946Y-165057920D02*
X185973565Y-165105539D01*
X185973565Y-165105539D02*
X186068803Y-165153158D01*
X186068803Y-165153158D02*
X186306898Y-165153158D01*
X186306898Y-165153158D02*
X186402136Y-165105539D01*
X186402136Y-165105539D02*
X186449756Y-165057920D01*
X186449756Y-165057920D02*
X186497375Y-164962682D01*
X186497375Y-164962682D02*
X186497375Y-164676968D01*
X186497375Y-164676968D02*
X186449756Y-164581730D01*
X186449756Y-164581730D02*
X186402136Y-164534111D01*
X223084819Y-165355833D02*
X222608628Y-165022500D01*
X223084819Y-164784405D02*
X222084819Y-164784405D01*
X222084819Y-164784405D02*
X222084819Y-165165357D01*
X222084819Y-165165357D02*
X222132438Y-165260595D01*
X222132438Y-165260595D02*
X222180057Y-165308214D01*
X222180057Y-165308214D02*
X222275295Y-165355833D01*
X222275295Y-165355833D02*
X222418152Y-165355833D01*
X222418152Y-165355833D02*
X222513390Y-165308214D01*
X222513390Y-165308214D02*
X222561009Y-165260595D01*
X222561009Y-165260595D02*
X222608628Y-165165357D01*
X222608628Y-165165357D02*
X222608628Y-164784405D01*
X222180057Y-165736786D02*
X222132438Y-165784405D01*
X222132438Y-165784405D02*
X222084819Y-165879643D01*
X222084819Y-165879643D02*
X222084819Y-166117738D01*
X222084819Y-166117738D02*
X222132438Y-166212976D01*
X222132438Y-166212976D02*
X222180057Y-166260595D01*
X222180057Y-166260595D02*
X222275295Y-166308214D01*
X222275295Y-166308214D02*
X222370533Y-166308214D01*
X222370533Y-166308214D02*
X222513390Y-166260595D01*
X222513390Y-166260595D02*
X223084819Y-165689167D01*
X223084819Y-165689167D02*
X223084819Y-166308214D01*
X146972857Y-134994819D02*
X147306190Y-134518628D01*
X147544285Y-134994819D02*
X147544285Y-133994819D01*
X147544285Y-133994819D02*
X147163333Y-133994819D01*
X147163333Y-133994819D02*
X147068095Y-134042438D01*
X147068095Y-134042438D02*
X147020476Y-134090057D01*
X147020476Y-134090057D02*
X146972857Y-134185295D01*
X146972857Y-134185295D02*
X146972857Y-134328152D01*
X146972857Y-134328152D02*
X147020476Y-134423390D01*
X147020476Y-134423390D02*
X147068095Y-134471009D01*
X147068095Y-134471009D02*
X147163333Y-134518628D01*
X147163333Y-134518628D02*
X147544285Y-134518628D01*
X146020476Y-134994819D02*
X146591904Y-134994819D01*
X146306190Y-134994819D02*
X146306190Y-133994819D01*
X146306190Y-133994819D02*
X146401428Y-134137676D01*
X146401428Y-134137676D02*
X146496666Y-134232914D01*
X146496666Y-134232914D02*
X146591904Y-134280533D01*
X145163333Y-134328152D02*
X145163333Y-134994819D01*
X145401428Y-133947200D02*
X145639523Y-134661485D01*
X145639523Y-134661485D02*
X145020476Y-134661485D01*
D12*
%TO.C,C26*%
X176465000Y-98521252D02*
X176465000Y-97998748D01*
X177935000Y-98521252D02*
X177935000Y-97998748D01*
%TO.C,R3*%
X226482500Y-162725276D02*
X226482500Y-163234724D01*
X225437500Y-162725276D02*
X225437500Y-163234724D01*
%TO.C,D6*%
X183310000Y-132257724D02*
X183310000Y-128997724D01*
X185010000Y-132257724D02*
X183310000Y-132257724D01*
X185010000Y-132257724D02*
X185010000Y-128997724D01*
%TO.C,R11*%
X146704724Y-170892500D02*
X146195276Y-170892500D01*
X146704724Y-169847500D02*
X146195276Y-169847500D01*
%TO.C,R23*%
X146715000Y-133207064D02*
X146715000Y-132752936D01*
X145245000Y-133207064D02*
X145245000Y-132752936D01*
%TO.C,C43*%
X203481252Y-68415000D02*
X202958748Y-68415000D01*
X203481252Y-66945000D02*
X202958748Y-66945000D01*
D11*
%TO.C,Z2*%
X225060000Y-91500750D02*
X223900000Y-91500750D01*
X225060000Y-93800750D02*
X225060000Y-91500750D01*
X223900000Y-93800750D02*
X223900000Y-91500750D01*
X223900000Y-93800750D02*
X225060000Y-93800750D01*
D12*
%TO.C,R1*%
X219692500Y-162685276D02*
X219692500Y-163194724D01*
X218647500Y-162685276D02*
X218647500Y-163194724D01*
%TO.C,C56*%
X177865000Y-132711252D02*
X177865000Y-132188748D01*
X176395000Y-132711252D02*
X176395000Y-132188748D01*
%TO.C,R21*%
X222692936Y-65625000D02*
X223147064Y-65625000D01*
X222692936Y-67095000D02*
X223147064Y-67095000D01*
%TO.C,R22*%
X145425000Y-167837064D02*
X145425000Y-167382936D01*
X146895000Y-167837064D02*
X146895000Y-167382936D01*
%TO.C,R19*%
X146734724Y-102512500D02*
X146225276Y-102512500D01*
X146734724Y-101467500D02*
X146225276Y-101467500D01*
%TO.C,C57*%
X178217556Y-166336192D02*
X178217556Y-166858696D01*
X176747556Y-166336192D02*
X176747556Y-166858696D01*
%TO.C,D9*%
X183120000Y-98143750D02*
X183120000Y-94883750D01*
X184820000Y-98143750D02*
X183120000Y-98143750D01*
X184820000Y-98143750D02*
X184820000Y-94883750D01*
%TO.C,D3*%
X183342556Y-166377444D02*
X183342556Y-163117444D01*
X185042556Y-166377444D02*
X183342556Y-166377444D01*
X185042556Y-166377444D02*
X185042556Y-163117444D01*
%TO.C,R24*%
X145425000Y-99477064D02*
X145425000Y-99022936D01*
X146895000Y-99477064D02*
X146895000Y-99022936D01*
%TO.C,R2*%
X223132500Y-162667776D02*
X223132500Y-163177224D01*
X222087500Y-162667776D02*
X222087500Y-163177224D01*
%TO.C,R14*%
X146584724Y-136492500D02*
X146075276Y-136492500D01*
X146584724Y-135447500D02*
X146075276Y-135447500D01*
%TD*%
M02*
