M48
; DRILL file {KiCad 7.0.9} date Mon Jan 15 08:15:27 2024
; FORMAT={-:-/ absolute / inch / decimal}
; #@! TF.CreationDate,2024-01-15T08:15:27+05:30
; #@! TF.GenerationSoftware,Kicad,Pcbnew,7.0.9
; #@! TF.FileFunction,Plated,1,2,PTH
FMAT,2
INCH
; #@! TA.AperFunction,Plated,PTH,ViaDrill
T1C0.0118
; #@! TA.AperFunction,Plated,PTH,ViaDrill
T2C0.0157
; #@! TA.AperFunction,Plated,PTH,ViaDrill
T3C0.0236
; #@! TA.AperFunction,Plated,PTH,ViaDrill
T4C0.0276
; #@! TA.AperFunction,Plated,PTH,ComponentDrill
T5C0.0315
; #@! TA.AperFunction,Plated,PTH,ComponentDrill
T6C0.0394
; #@! TA.AperFunction,Plated,PTH,ComponentDrill
T7C0.0472
; #@! TA.AperFunction,Plated,PTH,ComponentDrill
T8C0.0543
; #@! TA.AperFunction,Plated,PTH,ViaDrill
T9C0.1575
%
G90
G05
T1
X6.913Y-3.5295
X6.9201Y-4.8709
X6.9374Y-6.2157
X6.9724Y-4.8701
X6.9748Y-3.5295
X6.9886Y-6.2146
X7.1571Y-4.8685
X7.161Y-3.5276
X7.1673Y-6.2138
X8.4142Y-2.3768
X8.6882Y-2.3492
X8.7992Y-2.4051
X8.8Y-2.2228
X8.8004Y-2.4445
X8.8012Y-2.2606
X8.8413Y-2.4035
X8.8433Y-2.4441
X8.8437Y-2.2232
X8.8449Y-2.2622
X8.972Y-2.4413
X8.9724Y-2.2228
X8.9724Y-2.261
X8.9724Y-2.4024
X9.0177Y-2.2228
X9.0185Y-2.2598
X9.0228Y-2.4402
X9.0236Y-2.4012
T2
X5.8063Y-6.7783
X6.6028Y-4.3331
X6.6028Y-4.4339
X6.6031Y-3.061
X6.6031Y-4.3839
X6.6031Y-4.4846
X6.6035Y-3.1118
X6.6043Y-4.5437
X6.6047Y-3.1709
X6.6047Y-4.5945
X6.6051Y-3.2217
X6.6059Y-5.6469
X6.6063Y-5.6976
X6.6067Y-5.75
X6.6071Y-5.8008
X6.6071Y-6.9626
X6.6083Y-5.8598
X6.6087Y-5.9106
X6.6701Y-6.9626
X6.6827Y-4.3331
X6.6827Y-4.4339
X6.6831Y-3.061
X6.6831Y-4.3839
X6.6831Y-4.4846
X6.6835Y-3.1118
X6.6843Y-4.5437
X6.6846Y-3.1709
X6.6846Y-4.5945
X6.685Y-3.2217
X6.6858Y-5.6469
X6.6862Y-5.6976
X6.6866Y-5.75
X6.687Y-5.8008
X6.6882Y-5.8598
X6.6886Y-5.9106
X6.7366Y-6.9626
X6.7531Y-4.3331
X6.7531Y-4.4339
X6.7535Y-3.061
X6.7535Y-4.3839
X6.7535Y-4.4846
X6.7539Y-3.1118
X6.7547Y-4.5437
X6.7551Y-3.1709
X6.7551Y-4.5945
X6.7555Y-3.2217
X6.7563Y-5.6469
X6.7567Y-5.6976
X6.7571Y-5.75
X6.7575Y-5.8008
X6.7587Y-5.8598
X6.7591Y-5.9106
X6.7976Y-6.9626
X6.8256Y-4.3346
X6.8256Y-4.4354
X6.826Y-3.0626
X6.826Y-4.3854
X6.826Y-4.4862
X6.8264Y-3.1134
X6.8272Y-4.5457
X6.8276Y-3.1728
X6.8276Y-4.5965
X6.828Y-3.2236
X6.8287Y-5.6484
X6.8291Y-5.6992
X6.8295Y-5.7516
X6.8299Y-5.8024
X6.8311Y-5.8618
X6.8315Y-5.9126
X6.9055Y-4.3346
X6.9055Y-4.4354
X6.9059Y-3.0626
X6.9059Y-4.3854
X6.9059Y-4.4862
X6.9063Y-3.1134
X6.9071Y-4.5453
X6.9075Y-3.1724
X6.9075Y-4.5961
X6.9079Y-3.2232
X6.9087Y-5.6484
X6.9091Y-5.6992
X6.9094Y-5.7516
X6.9098Y-5.8024
X6.911Y-5.8614
X6.9114Y-5.9122
X6.976Y-4.3346
X6.976Y-4.4354
X6.9764Y-3.0626
X6.9764Y-4.3854
X6.9764Y-4.4862
X6.9768Y-3.1134
X6.9776Y-4.5453
X6.978Y-3.1724
X6.978Y-4.5961
X6.9783Y-3.2232
X6.9791Y-5.6484
X6.9795Y-5.6992
X6.9799Y-5.7516
X6.9803Y-5.8024
X6.9815Y-5.8614
X6.9819Y-5.9122
X7.0484Y-4.3366
X7.0484Y-4.4374
X7.0488Y-3.0646
X7.0488Y-4.3874
X7.0488Y-4.4882
X7.0492Y-3.1154
X7.05Y-4.5472
X7.0504Y-3.1744
X7.0504Y-4.598
X7.0508Y-3.2252
X7.0516Y-5.6504
X7.052Y-5.7012
X7.0524Y-5.7535
X7.0528Y-5.8043
X7.0539Y-5.8634
X7.0543Y-5.9142
X7.1587Y-5.0205
X7.1642Y-3.6878
X7.1654Y-6.3677
X7.4161Y-2.8618
X7.5598Y-4.0854
X7.5697Y-5.4457
X7.6157Y-5.7209
X7.6157Y-5.8165
X7.6157Y-5.9114
X7.6311Y-4.5071
X7.6315Y-4.3984
X7.6315Y-4.6043
X7.678Y-2.0626
X7.6795Y-6.1602
X7.713Y-5.7228
X7.713Y-5.9134
X7.715Y-5.8181
X7.7307Y-2.7051
X7.7315Y-2.7504
X7.739Y-3.3543
X7.7398Y-2.0626
X7.7433Y-4.3996
X7.7445Y-4.6043
X7.7469Y-4.5071
X7.7681Y-5.0583
X7.7748Y-6.4299
X7.7752Y-2.7051
X7.7756Y-3.7287
X7.776Y-2.7504
X7.7992Y-2.0618
X7.8075Y-3.3571
X7.837Y-3.0445
X7.8591Y-2.0646
X7.8791Y-3.3571
X7.9563Y-3.3598
X7.9724Y-6.9701
X8.0335Y-3.3598
X8.0335Y-6.9697
X8.0437Y-2.3717
X8.0957Y-6.9697
X8.1555Y-4.7884
X8.1591Y-6.9685
X8.165Y-2.5882
X8.1748Y-4.9717
X8.2165Y-6.9697
X8.2644Y-5.0608
X8.3063Y-5.6862
X8.3087Y-3.2256
X8.3126Y-4.3886
X8.3138Y-4.4476
X8.3138Y-4.5075
X8.3142Y-4.3327
X8.3169Y-3.6783
X8.3169Y-3.7917
X8.3169Y-3.8472
X8.3173Y-3.6213
X8.3173Y-3.7339
X8.3185Y-3.0382
X8.3561Y-5.0372
X8.4547Y-4.0807
X8.4811Y-5.4161
X8.4831Y-5.95
X8.485Y-6.1626
X8.4854Y-6.0142
X8.487Y-6.0862
X8.5567Y-5.4945
X8.6094Y-2.7295
X8.6323Y-6.3063
X8.637Y-3.5213
X8.6614Y-4.4232
X8.7051Y-4.8283
X8.7051Y-5.8327
X8.7671Y-6.2998
X8.8291Y-5.8315
X8.8343Y-4.4531
X8.9Y-6.3043
X8.9453Y-5.4157
X8.9551Y-4.7642
X8.9697Y-5.8295
X8.9894Y-2.7642
X8.9898Y-2.8748
X8.9909Y-2.7059
X8.9913Y-2.8165
X9.003Y-4.9035
X9.0409Y-3.7819
X9.0622Y-2.7642
X9.0626Y-2.8748
X9.063Y-2.7059
X9.0634Y-2.8165
X9.0728Y-5.0189
X9.0976Y-3.7831
X9.1374Y-2.765
X9.1378Y-2.8756
X9.1382Y-2.7075
X9.1386Y-2.8181
X9.1484Y-5.5157
X9.1504Y-3.7839
X9.1567Y-5.4154
X9.1622Y-6.972
X9.1953Y-5.5622
X9.2071Y-3.7854
X9.211Y-2.765
X9.2114Y-2.8756
X9.213Y-2.7067
X9.2134Y-2.8173
X9.2244Y-6.972
X9.2591Y-6.5969
X9.263Y-6.6673
X9.2799Y-3.2382
X9.2815Y-3.3126
X9.2815Y-3.389
X9.2839Y-2.7587
X9.2843Y-2.8693
X9.2843Y-3.5457
X9.285Y-2.6508
X9.285Y-2.7067
X9.2854Y-2.8173
X9.2858Y-2.5358
X9.2858Y-3.4673
X9.2862Y-2.3283
X9.2866Y-2.1913
X9.2866Y-2.2366
X9.2866Y-2.3768
X9.2866Y-2.5925
X9.287Y-2.2803
X9.2874Y-2.4803
X9.2878Y-2.1409
X9.2878Y-2.4248
X9.2878Y-6.9709
X9.3327Y-2.7087
X9.3331Y-2.8193
X9.3335Y-2.7614
X9.3339Y-2.872
X9.335Y-2.652
X9.3354Y-2.1429
X9.3354Y-2.2354
X9.3354Y-2.2799
X9.3362Y-2.1925
X9.3362Y-2.3283
X9.3374Y-2.3756
X9.3374Y-2.5945
X9.339Y-2.4252
X9.339Y-2.4799
X9.3394Y-6.5969
X9.3394Y-6.6713
X9.3398Y-2.5374
X9.3453Y-6.972
X9.3598Y-3.2402
X9.3598Y-3.3146
X9.3602Y-3.3874
X9.3622Y-3.4673
X9.3622Y-3.5476
X9.3807Y-2.7587
X9.3811Y-2.8693
X9.3819Y-2.6508
X9.3819Y-2.7067
X9.3823Y-2.8173
X9.3827Y-2.5358
X9.3831Y-2.3283
X9.3835Y-2.1913
X9.3835Y-2.2366
X9.3835Y-2.3768
X9.3835Y-2.5925
X9.3839Y-2.2803
X9.3843Y-2.4803
X9.3846Y-2.1409
X9.3846Y-2.4248
X9.4295Y-2.7087
X9.4299Y-2.8193
X9.4303Y-2.7614
X9.4307Y-2.872
X9.4307Y-5.4134
X9.4319Y-2.652
X9.4323Y-2.1429
X9.4323Y-2.2354
X9.4323Y-2.2799
X9.4331Y-2.1925
X9.4331Y-2.3283
X9.4343Y-2.3756
X9.4343Y-2.5945
X9.4358Y-2.4252
X9.4358Y-2.4799
X9.4366Y-2.5374
T3
X8.8393Y-3.5696
T4
X5.8039Y-6.5086
X5.8063Y-3.8134
X5.8063Y-5.15
X5.8067Y-5.4193
X5.8075Y-4.0724
X5.9654Y-5.1516
X5.9681Y-4.7806
X5.9689Y-3.4374
X5.9693Y-3.8134
X5.9693Y-6.5122
X5.9705Y-4.072
X5.9713Y-6.1217
X5.9724Y-5.4185
X6.2957Y-6.5079
X6.2969Y-6.1228
X6.3Y-3.4362
X6.3Y-3.8177
X6.3Y-4.072
X6.3004Y-5.4165
X6.3012Y-4.78
X6.302Y-5.1516
T5
X6.1697Y-6.3319
X6.1701Y-5.002
X6.1736Y-3.6504
X6.1772Y-3.2311
X6.3665Y-6.3319
X6.3669Y-5.002
X6.3705Y-3.6504
X6.374Y-3.2311
X6.4284Y-2.4308
X6.5676Y-2.57
X6.8157Y-3.8195
X6.8157Y-3.918
X6.8209Y-5.1622
X6.8209Y-5.2606
X6.8218Y-6.5082
X6.8218Y-6.6066
X7.0925Y-4.76
X7.0925Y-4.86
X7.0925Y-4.96
X7.0925Y-5.06
X7.0925Y-5.16
X7.0925Y-5.26
X7.0925Y-5.36
X7.0984Y-3.4278
X7.0984Y-3.5278
X7.0984Y-3.6278
X7.0984Y-3.7278
X7.0984Y-3.8278
X7.0984Y-3.9278
X7.0984Y-4.0278
X7.1005Y-6.1145
X7.1005Y-6.2145
X7.1005Y-6.3145
X7.1005Y-6.4145
X7.1005Y-6.5145
X7.1005Y-6.6145
X7.1005Y-6.7145
X7.1695Y-4.3768
X7.1717Y-5.7224
X7.1736Y-3.0386
X7.2671Y-4.5764
X7.2679Y-4.3768
X7.2699Y-3.2382
X7.2701Y-5.7224
X7.2711Y-5.9217
X7.272Y-3.0386
X7.3655Y-4.5764
X7.3683Y-3.2382
X7.3695Y-5.9217
X7.3925Y-4.76
X7.3925Y-4.86
X7.3925Y-4.96
X7.3925Y-5.06
X7.3925Y-5.16
X7.3925Y-5.26
X7.3925Y-5.36
X7.3984Y-3.4278
X7.3984Y-3.5278
X7.3984Y-3.6278
X7.3984Y-3.7278
X7.3984Y-3.8278
X7.3984Y-3.9278
X7.3984Y-4.0278
X7.4005Y-6.1145
X7.4005Y-6.2145
X7.4005Y-6.3145
X7.4005Y-6.4145
X7.4005Y-6.5145
X7.4005Y-6.6145
X7.4005Y-6.7145
X7.7441Y-3.9274
X7.7441Y-4.0258
X7.7564Y-6.616
X7.7564Y-6.7145
X7.7661Y-5.2642
X7.7661Y-5.3626
X7.9406Y-2.7965
X8.0391Y-2.7965
X8.1929Y-2.1724
X8.1929Y-2.2709
X8.5567Y-3.8224
X8.5592Y-3.2786
X8.5592Y-3.3771
X8.6551Y-3.8224
X9.2236Y-4.9913
X9.2236Y-5.1843
X9.3366Y-5.9
X9.3366Y-5.9787
X9.3366Y-6.0575
X9.3366Y-6.1362
X9.4154Y-5.9
X9.4154Y-5.9787
X9.4154Y-6.0575
X9.4154Y-6.1362
T6
X6.1043Y-2.4831
X6.1626Y-6.6291
X6.1634Y-5.2961
X6.1642Y-2.9575
X6.1657Y-3.9437
X6.2018Y-2.5805
X6.3004Y-6.6291
X6.3012Y-5.2961
X6.302Y-2.9575
X6.3035Y-3.9437
X8.5421Y-2.6374
X8.5421Y-2.8343
X8.6028Y-6.7063
X8.7028Y-6.7063
X8.739Y-2.7358
X8.7516Y-3.2523
X8.8028Y-6.7063
X8.9028Y-6.7063
X8.9484Y-3.1538
X8.9484Y-3.3507
X9.0028Y-6.7063
X9.3291Y-5.6569
X9.4287Y-4.415
X9.4287Y-4.515
X9.4287Y-4.615
X9.4287Y-4.715
X9.4291Y-3.9921
X9.4291Y-4.0921
X9.4291Y-4.1921
X9.4291Y-5.6569
T7
X8.2575Y-2.8185
X8.3803Y-2.8181
X8.702Y-4.1224
X8.8315Y-4.1244
T8
X5.5882Y-3.3173
X5.5882Y-3.4173
X5.5882Y-3.5173
X5.5886Y-3.8172
X5.5886Y-3.9172
X5.5886Y-4.0172
X5.5949Y-4.6539
X5.5949Y-4.7539
X5.5949Y-4.8539
X5.5969Y-5.1535
X5.5969Y-5.2535
X5.5969Y-5.3535
X5.6035Y-6.0047
X5.6035Y-6.1047
X5.6035Y-6.2047
X5.6035Y-6.5047
X5.6035Y-6.6047
X5.6035Y-6.7047
T9
X6.863Y-2.2185
X7.1425Y-2.6004
T0
M30
